<svg width="200" height="48" viewBox="0 0 200 48" fill="none" xmlns="http://www.w3.org/2000/svg">
<g clip-path="url(#clip0_0_2027)">
<rect width="200" height="48" fill="#203A4C"/>
<rect opacity="0.1" y="2" width="48" height="48" fill="black"/>
<path d="M16 26L24 30L32 26" stroke="#5FB4A2"/>
<path opacity="0.5" d="M16 22L24 26L32 22" stroke="#5FB4A2"/>
<path opacity="0.25" d="M16 18L24 22L32 18" stroke="#5FB4A2"/>
<path d="M86.7363 28L89.8743 19.324H91.1283L94.2663 28H93.1323L92.2803 25.624H88.7343L87.8643 28H86.7363ZM89.0163 24.604H91.9863L90.5103 20.422L89.0163 24.604ZM97.9038 28V19.324H100.694C101.75 19.324 102.548 19.518 103.088 19.906C103.632 20.294 103.904 20.854 103.904 21.586C103.904 22.046 103.784 22.44 103.544 22.768C103.308 23.096 102.892 23.366 102.296 23.578C102.636 23.65 102.922 23.754 103.154 23.89C103.39 24.026 103.578 24.186 103.718 24.37C103.862 24.55 103.964 24.75 104.024 24.97C104.088 25.19 104.12 25.422 104.12 25.666C104.12 26.45 103.84 27.036 103.28 27.424C102.724 27.808 101.892 28 100.784 28H97.9038ZM99.0138 27.076H100.772C101.496 27.076 102.046 26.958 102.422 26.722C102.802 26.482 102.992 26.114 102.992 25.618C102.992 25.254 102.898 24.96 102.71 24.736C102.526 24.508 102.276 24.342 101.96 24.238C101.644 24.134 101.292 24.082 100.904 24.082H99.0138V27.076ZM99.0138 23.14H100.904C101.132 23.14 101.358 23.118 101.582 23.074C101.806 23.03 102.012 22.954 102.2 22.846C102.388 22.738 102.54 22.594 102.656 22.414C102.772 22.23 102.83 22 102.83 21.724C102.83 21.22 102.636 20.848 102.248 20.608C101.864 20.364 101.364 20.242 100.748 20.242H99.0138V23.14ZM111.178 28.12C110.406 28.12 109.738 27.946 109.174 27.598C108.61 27.25 108.174 26.746 107.866 26.086C107.562 25.422 107.41 24.62 107.41 23.68C107.41 22.732 107.564 21.926 107.872 21.262C108.18 20.594 108.616 20.084 109.18 19.732C109.748 19.38 110.414 19.204 111.178 19.204C111.946 19.204 112.61 19.38 113.17 19.732C113.73 20.08 114.162 20.588 114.466 21.256C114.77 21.92 114.922 22.728 114.922 23.68C114.922 24.62 114.77 25.422 114.466 26.086C114.166 26.746 113.736 27.25 113.176 27.598C112.616 27.946 111.95 28.12 111.178 28.12ZM111.178 27.154C111.714 27.154 112.17 27.032 112.546 26.788C112.922 26.544 113.208 26.166 113.404 25.654C113.604 25.142 113.704 24.488 113.704 23.692C113.704 22.884 113.604 22.22 113.404 21.7C113.204 21.18 112.916 20.796 112.54 20.548C112.164 20.296 111.71 20.17 111.178 20.17C110.65 20.17 110.196 20.296 109.816 20.548C109.436 20.8 109.144 21.186 108.94 21.706C108.736 22.226 108.634 22.888 108.634 23.692C108.634 24.488 108.736 25.142 108.94 25.654C109.144 26.166 109.436 26.544 109.816 26.788C110.196 27.032 110.65 27.154 111.178 27.154ZM124.886 25C124.886 25.668 124.776 26.234 124.556 26.698C124.336 27.162 123.992 27.516 123.524 27.76C123.06 28 122.456 28.12 121.712 28.12C120.96 28.12 120.35 27.996 119.882 27.748C119.418 27.5 119.078 27.136 118.862 26.656C118.65 26.176 118.544 25.586 118.544 24.886V19.324H119.696V25.054C119.696 25.754 119.87 26.278 120.218 26.626C120.566 26.974 121.064 27.148 121.712 27.148C122.148 27.148 122.518 27.072 122.822 26.92C123.13 26.768 123.364 26.538 123.524 26.23C123.688 25.918 123.77 25.526 123.77 25.054V19.324H124.886V25ZM128.077 20.344V19.324H134.641V20.344H131.995V28H130.879V20.344H128.077ZM142.837 28V19.324H144.373L146.989 26.488L149.641 19.324H151.171V28H150.025V20.986L147.511 28H146.473L143.977 21.052V28H142.837ZM155.466 28V19.324H160.938L160.932 20.302H156.582V23.134H160.5V24.106H156.576V26.998L161.052 27.01V28H155.466Z" fill="white"/>
</g>
<defs>
<clipPath id="clip0_0_2027">
<rect width="200" height="48" fill="white"/>
</clipPath>
</defs>
</svg>
